<svg xmlns="http://www.w3.org/2000/svg" width="1342" height="377" viewBox="32 249 1342 377"><defs><clipPath id="a" clipPathUnits="userSpaceOnUse"><path d="M-269.243 230.245h1068.89V-396.33h-1068.89Z"/></clipPath><clipPath id="b" clipPathUnits="userSpaceOnUse"><path d="M-331.745 338.16h1068.89v-626.573h-1068.89Z"/></clipPath><clipPath id="c" clipPathUnits="userSpaceOnUse"><path d="M-409.33 190.515H659.56v-626.574H-409.33Z"/></clipPath><clipPath id="d" clipPathUnits="userSpaceOnUse"><path d="M-127.358 335.11h1068.89v-626.573h-1068.89Z"/></clipPath><clipPath id="e" clipPathUnits="userSpaceOnUse"><path d="M-138.86 400.326H930.03v-626.574H-138.86Z"/></clipPath><clipPath id="f" clipPathUnits="userSpaceOnUse"><path d="M-449.934 345.473h1068.89V-281.1h-1068.89Z"/></clipPath><clipPath id="g" clipPathUnits="userSpaceOnUse"><path d="M-438.435 280.26h1068.89v-626.574h-1068.89Z"/></clipPath><clipPath id="h" clipPathUnits="userSpaceOnUse"><path d="M-60.25 310.435h1068.89v-626.574H-60.25Z"/></clipPath><clipPath id="i" clipPathUnits="userSpaceOnUse"><path d="M-84.844 404.135h1068.89v-626.574H-84.844Z"/></clipPath><clipPath id="j" clipPathUnits="userSpaceOnUse"><path d="M-576.864 293.428h1068.89v-626.574h-1068.89Z"/></clipPath><clipPath id="k" clipPathUnits="userSpaceOnUse"><path d="M-668.505 342.426h1068.89v-626.574h-1068.89Z"/></clipPath><clipPath id="l" clipPathUnits="userSpaceOnUse"><path d="M-733.684 320.705h1068.89V-305.87h-1068.89Z"/></clipPath><clipPath id="m" clipPathUnits="userSpaceOnUse"><path d="M-766.025 368.234h1068.89V-258.34h-1068.89Z"/></clipPath><clipPath id="n" clipPathUnits="userSpaceOnUse"><path d="M-830.385 277.748h1068.89v-626.574h-1068.89Z"/></clipPath><clipPath id="o" clipPathUnits="userSpaceOnUse"><path d="M-888.701 317.273h1068.89v-626.574h-1068.89Z"/></clipPath><clipPath id="p" clipPathUnits="userSpaceOnUse"><path d="M-993.408 288.527H75.482v-626.574h-1068.89Z"/></clipPath><clipPath id="q" clipPathUnits="userSpaceOnUse"><path d="M-1026.244 235.77H42.646v-626.574h-1068.89Z"/></clipPath></defs><path d="M0 0c-60.68-10.7-101.347-68.773-90.645-129.453 10.7-60.681 68.772-101.344 129.453-90.642s101.343 68.769 90.645 129.449C118.754-29.963 60.681 10.699 0 0m41.171-233.485C-26.9-245.49-92.037-199.879-104.039-131.817-116.04-63.75-70.43 1.392-2.363 13.391 65.704 25.395 130.843-20.216 142.845-88.282c12.003-68.063-33.612-133.203-101.674-145.203" clip-path="url(#a)" style="fill:#fff;fill-opacity:1;fill-rule:nonzero;stroke:none" transform="matrix(1.33333 0 0 -1.33333 358.99 306.993)"/><path d="M0 0q-3.469-9.992-18.113-29.323-4.914-6.456-8.033-10.327c-4.365-5.359-7.286-8.334-8.763-8.912-2.426.292-9.854 4.441-22.274 12.463-10.085 6.464-17.303 11.719-21.666 15.781Q-90.466-9.662-92.496 1.86q-1.911 10.83 4.85 19.623 6.479 8.386 17.539 10.337c9.752 1.718 17.277-1.228 22.586-8.846 2.371 8.975 8.442 14.314 18.195 16.036q11.055 1.947 20.014-3.715c6.24-3.968 9.998-9.558 11.273-16.781Q3.465 9.993 0 0m-60.01 93.781c-52.968-9.34-88.339-59.853-78.999-112.827 9.338-52.968 59.855-88.337 112.823-78.996S62.15-38.19 52.811 14.778C43.47 67.751-7.041 103.119-60.01 93.781" clip-path="url(#b)" style="fill:#f39710;fill-opacity:1;fill-rule:nonzero;stroke:none" transform="matrix(1.33333 0 0 -1.33333 442.327 450.88)"/><path d="m0 0-29.973-5.284 3.17-17.986L3.17-17.985z" clip-path="url(#c)" style="fill:#f39710;fill-opacity:1;fill-rule:nonzero;stroke:none" transform="matrix(1.33333 0 0 -1.33333 545.773 254.02)"/><path d="m0 0-6.932 39.325c-.977 5.546 2.738 10.851 8.28 11.827l37.8 6.666a138 138 0 0 0 11.381 18.361l-51.976-9.168c-14.29-2.517-23.865-16.192-21.345-30.484l9.171-52.01z" clip-path="url(#d)" style="fill:#fff;fill-opacity:1;fill-rule:nonzero;stroke:none" transform="matrix(1.33333 0 0 -1.33333 169.811 446.815)"/><path d="m0 0 6.933-39.326c.979-5.541 6.282-9.256 11.827-8.279l37.802 6.666a138 138 0 0 1 16.97-13.362l-51.977-9.163C7.268-65.985-6.406-56.408-8.925-42.118l-9.173 52.011z" clip-path="url(#e)" style="fill:#fff;fill-opacity:1;fill-rule:nonzero;stroke:none" transform="matrix(1.33333 0 0 -1.33333 185.146 533.768)"/><path d="m0 0 6.933-39.325c.976-5.546-2.735-10.851-8.281-11.827l-37.8-6.666a138 138 0 0 0-11.38-18.361L1.45-67.016c14.289 2.522 23.864 16.2 21.343 30.484l-9.17 52.015z" clip-path="url(#f)" style="fill:#fff;fill-opacity:1;fill-rule:nonzero;stroke:none" transform="matrix(1.33333 0 0 -1.33333 599.911 460.63)"/><path d="m0 0-6.936 39.328c-.976 5.541-6.281 9.256-11.824 8.279l-37.801-6.666a138 138 0 0 1-16.973 13.362l51.976 9.163c14.289 2.521 27.964-7.054 30.486-21.343l9.168-52.014z" clip-path="url(#g)" style="fill:#fff;fill-opacity:1;fill-rule:nonzero;stroke:none" transform="matrix(1.33333 0 0 -1.33333 584.58 373.68)"/><path d="M0 0c.776-2.605 1.088-7.026.935-13.253a207 207 0 0 0-.191-5.043c-.162-2.655-.407-4.248-.739-4.757-.823-.459-4.081-.834-9.776-1.115q-6.915-.372-10.33.064-6.038.717-9.264 3.869-3.037 2.961-2.898 7.233c.094 2.719 1.146 5.117 3.162 7.18 2.665 2.738 5.684 3.503 9.061 2.319q-1.918 5.012 2.085 9.113c2.015 2.063 4.378 3.177 7.101 3.34 2.844.158 5.278-.74 7.303-2.719Q-1.161 3.908 0 0" clip-path="url(#h)" style="fill:#fff;fill-opacity:1;fill-rule:nonzero;stroke:none" transform="matrix(1.33333 0 0 -1.33333 80.333 413.913)"/><path d="M0 0c-2.143-2.605-6.465-5.99-12.979-10.154a251 251 0 0 0-5.313-3.301c-2.848-1.678-4.651-2.532-5.411-2.542-1.039.528-3.683 3.622-7.923 9.281-3.458 4.565-5.822 8.117-7.106 10.663q-3.446 6.707-2.447 12.207.936 5.18 5.426 7.998c2.864 1.792 6.057 2.374 9.579 1.733 4.659-.844 7.543-3.41 8.663-7.712 2.552 3.637 6.159 5.027 10.819 4.179q5.28-.95 8.363-4.979c2.14-2.812 2.9-5.94 2.277-9.394Q3.208 3.908 0 0" clip-path="url(#i)" style="fill:#fff;fill-opacity:1;fill-rule:nonzero;stroke:none" transform="matrix(1.33333 0 0 -1.33333 113.125 538.847)"/><path d="M0 0c0 12.904-18.783.655-26.459-30.052C-4.572-26.624 0-3.429 0 0m36.587-106c-40.669 0-44.263 63.534-64.516 68.108q-1.226-6.126-1.469-13.229c3.265-20.416 9.636-23.358 3.429-23.358-12.577 0-27.44 14.373-27.44 47.203 0 15.845 5.554 72.194 5.554 75.95 0 8.656 24.335 2.449 24.335-6.207 0-7.84-6.206-44.263-7.349-64.841 5.881 15.842 18.293 33.317 26.297 33.317 10.943 0 23.355.328 23.355-16.17 0-15.514-9.472-23.682-21.558-28.09C8.004-53.244 20.906-97.18 46.224-97.18c7.023 0 4.9-8.82-9.637-8.82" clip-path="url(#j)" style="fill:#fff;fill-opacity:1;fill-rule:nonzero;stroke:none" transform="matrix(1.33333 0 0 -1.33333 769.152 391.238)"/><path d="M0 0c0-24.665 3.102-23.194 3.102-27.931s-24.663-1.305-24.663 26.298c0 18.128 3.43 39.853 5.717 52.429-7.187-18.131-19.6-65.495-25.969-74.806-.165-.817-.491-1.307-1.308-1.633h-.489a6 6 0 0 0-1.961-.328c-23.846 0-21.559 55.533-21.559 57.984 0 2.941-1.797 1.795-1.797 4.736s24.01 4.574 24.01-6.044c0-3.429-.654-21.069-.654-26.458 0-4.247.326-8.006.816-11.271 6.207 20.744 20.254 63.537 32.015 70.233.326.326.816.49 1.306.653.653.163 1.143.326 1.797.326.979 0 1.959 0 3.102-.163 2.613 0 4.084-.326 4.574-.816 5.227-1.47 10.289-4.573 10.289-8.494C8.328 46.875 0 12.411 0 0" clip-path="url(#k)" style="fill:#fff;fill-opacity:1;fill-rule:nonzero;stroke:none" transform="matrix(1.33333 0 0 -1.33333 891.34 456.568)"/><path d="M0 0c-1.961-7.675-15.354-46.222-26.623-46.222h-.328c-21.233 0-23.846 30.542-23.846 45.57 0 18.945 1.797 25.805 1.797 29.889 0 7.187 20.58.818 20.58-7.35 0-5.879-.98-15.68-.98-22.701 0-17.479 3.429-28.422 6.207-34.629C-16.498-31.85-4.736-3.918-3.594.328-2.451 4.412.652 2.613 0 0m-53.9 59.29c0 8.33 7.023 8.004 15.19 8.004 8.003 0 16.659-9.801 16.659-16.007 0-14.7-31.849-.163-31.849 8.003" clip-path="url(#l)" style="fill:#fff;fill-opacity:1;fill-rule:nonzero;stroke:none" transform="matrix(1.33333 0 0 -1.33333 978.245 427.606)"/><path d="M0 0c-9.473 0-18.62 6.044-9.473 6.044 20.254 0 17.313 73.663 11.76 73.663-10.29 0-20.743-42.466-24.173-57.983a644 644 0 0 1-.49-25.481c0-42.14 15.393-64.093 7.952-65.841-.162-.038-3.3-.006-3.465 0-32.756 1.44-26.804 159.921-14.94 159.921 6.207 0 14.536 0 14.536-6.697 0-3.594-1.144-16.823-2.286-34.954 3.756 15.846 8.982 32.668 13.066 36.915 5.39 5.39 21.56 2.286 23.683.817C36.912 72.52 35.933 0 0 0" clip-path="url(#m)" style="fill:#fff;fill-opacity:1;fill-rule:nonzero;stroke:none" transform="matrix(1.33333 0 0 -1.33333 1021.367 490.979)"/><path d="M0 0c11.924 0 28.422 1.47 28.422-10.944 0-12.249-15.68-27.767-18.459-27.767-2.938 0 3.922 23.03 1.308 23.03-12.576 0-24.009-31.85-14.375-31.85 4.25 0 29.238.328 29.238-14.044 0-14.537-26.296-37.895-35.932-37.895-9.638 0-15.845 8.493-11.598 8.493 7.839 0 30.378 24.175 30.378 30.055 0 0-35.115-5.39-35.115 21.068C-26.133-25.644-11.758 0 0 0" clip-path="url(#n)" style="fill:#fff;fill-opacity:1;fill-rule:nonzero;stroke:none" transform="matrix(1.33333 0 0 -1.33333 1107.18 370.33)"/><path d="M0 0c20.744-8.82 24.011 27.275 15.681 27.275C7.187 27.275 1.637 14.209 0 0m49.653-3.104c-1.142-3.265-10.615-43.284-36.258-43.284-22.703 0-36.259 20.417-36.259 36.749 0 21.235 10.778 40.836 17.313 46.715 6.697 5.88 22.377 4.9 27.439 2.449 4.901-2.286 8.495-9.798 8.495-18.947 0-17.15-8.168-26.133-18.783-26.133-3.922 0-8.496 1.143-11.924 2.123-1.309-16.17 8.654-32.665 17.64-32.665 20.742 0 28.091 31.685 29.072 34.464 1.142 3.104 4.411 1.957 3.265-1.471" clip-path="url(#o)" style="fill:#fff;fill-opacity:1;fill-rule:nonzero;stroke:none" transform="matrix(1.33333 0 0 -1.33333 1184.935 423.03)"/><path d="M0 0c0-13.557-3.429-26.623-11.596-26.623-8.33 0-14.372 3.266-14.372 6.859s2.776 17.641 2.776 17.641-18.946-37.73-20.254-60.924c1.799-11.924 4.246-15.027 4.246-17.804 0-4.408-26.785-12.576-26.785 50.472 0 16.66 2.123 40.995 7.677 40.995 10.944 0 16.005-5.717 16.005-12.577 0-6.696-3.266-14.861-3.266-27.275 0-6.045.163-11.272.49-15.843 4.246 21.397 17.966 58.145 25.48 58.145C-10.615 13.066 0 13.557 0 0" clip-path="url(#p)" style="fill:#fff;fill-opacity:1;fill-rule:nonzero;stroke:none" transform="matrix(1.33333 0 0 -1.33333 1324.544 384.703)"/><path d="M0 0c.49-10.291-9.473-82.812-8.492-106.493 1.795-36.259 15.351-38.872 6.044-39.2-9.148-.491-25.318 14.862-26.623 44.589-1.471 29.892 8.82 97.672 8.33 105.676C-21.231 17.803-.49 10.125 0 0" clip-path="url(#q)" style="fill:#fff;fill-opacity:1;fill-rule:nonzero;stroke:none" transform="matrix(1.33333 0 0 -1.33333 1368.325 314.36)"/><path d="M5.59.001v-48.48h30.083v6.855H13.454v16.36h18.469v6.867H13.454V0Zm37.272-31.558q3.643-4.605 12.13-4.606 8.493 0 12.14 4.606 3.656 4.595 3.656 13.793 0 9.2-3.539 13.875Q63.709.775 55.003.775q-8.71.001-12.246-4.664c-2.361-3.118-3.54-7.74-3.54-13.875q0-9.197 3.645-13.793m5.766 23.004Q50.254-5.73 54.99-5.73q4.745.001 6.375-2.824 1.628-2.835 1.63-9.282c0-4.295-.581-7.339-1.735-9.129q-1.735-2.694-6.27-2.695-4.526.001-6.258 2.695-1.735 2.685-1.734 9.13 0 6.445 1.629 9.28m48.832-20.25h-9.762v15.574q0 4.315.633 5.73.643 1.42 3.258 1.418l5.8-.222.364 6.164q-4.747.914-7.23.914-6.013 0-8.239-2.754-2.227-2.765-2.226-10.406v-16.418h-4.536v-6.586h4.536v-10.266h7.64v10.266h9.762zm8.256-2.754q3.644-4.605 12.129-4.606 8.494 0 12.14 4.606 3.657 4.595 3.657 13.793 0 9.2-3.54 13.875-3.54 4.664-12.246 4.664-8.708.001-12.246-4.664c-2.361-3.118-3.539-7.74-3.539-13.875q-.001-9.197 3.645-13.793m5.765 23.004q1.626 2.824 6.364 2.824 4.745.001 6.375-2.824 1.628-2.835 1.629-9.282-.001-6.443-1.735-9.129-1.735-2.694-6.27-2.695-4.526.001-6.257 2.695-1.735 2.685-1.734 9.13 0 6.445 1.628 9.28m46.292-27.61q7.287.001 10.512 4.067 3.223 4.067 3.223 14.402 0 10.336-3.832 14.402Q163.853.776 154.234.775q-3.33 0-10.547-.633l-2.402-.211v-50.04h7.64v16.067q4.887-2.119 8.848-2.12M154.234-6.08q5.66 0 7.536-2.648 1.873-2.659 1.875-9.035-.002-6.373-1.594-8.954-1.596-2.589-5.203-2.59-3.388.002-6.786 1.067l-1.136.352v21.515q3.89.294 5.308.293m26.933-25.476q3.643-4.605 12.129-4.606 8.494 0 12.14 4.606 3.657 4.595 3.657 13.793 0 9.2-3.54 13.875-3.54 4.664-12.245 4.664-8.71.001-12.246-4.664c-2.362-3.118-3.54-7.74-3.54-13.875q-.001-9.197 3.645-13.793m5.766 23.004q1.626 2.824 6.363 2.824 4.745.001 6.375-2.824 1.627-2.835 1.629-9.282-.001-6.443-1.735-9.129-1.735-2.694-6.27-2.695-4.526.001-6.257 2.695-1.735 2.685-1.734 9.13 0 6.445 1.629 9.28m25.629-26.836h8.203l6.937 12.246 7.008-12.246h8.215l-10.547 17.414L242.925 0h-8.215l-7.008-12.105L220.765 0h-8.203l10.265-17.765Zm0 0" aria-label="Fotobox" style="fill:#fff;fill-opacity:1;fill-rule:nonzero;stroke:none" transform="translate(1023.378 582.951)scale(1.33333)"/></svg>