<?xml version="1.0" encoding="iso-8859-1"?>
<!-- Generator: Adobe Illustrator 30.1.0, SVG Export Plug-In . SVG Version: 9.03 Build 0)  -->
<svg version="1.1" id="Ebene_1" xmlns="http://www.w3.org/2000/svg" xmlns:xlink="http://www.w3.org/1999/xlink" x="0px" y="0px"
	 viewBox="0 0 999.05 275.132" style="enable-background:new 0 0 999.05 275.132;" xml:space="preserve">
<g>
	<path style="fill:#FFFFFF;" d="M282.433,273.214c-68.071,12.005-133.208-33.606-145.21-101.668
		c-12.001-68.067,33.609-133.209,101.676-145.208c68.067-12.004,133.206,33.607,145.208,101.673
		C396.11,196.074,350.495,261.214,282.433,273.214 M241.262,39.729c-60.68,10.7-101.347,68.773-90.645,129.453
		c10.7,60.681,68.772,101.344,129.453,90.642c60.68-10.702,101.343-68.769,90.645-129.449
		C360.016,69.693,301.943,29.031,241.262,39.729"/>
	<path style="fill:#F3A100;" d="M243.754,53.865c-52.968,9.34-88.339,59.853-78.999,112.827
		c9.338,52.968,59.855,88.337,112.823,78.996s88.336-59.852,78.997-112.82C347.234,79.895,296.723,44.527,243.754,53.865
		 M303.764,147.646c-2.314,6.661-8.349,16.436-18.113,29.323c-3.277,4.303-5.953,7.747-8.033,10.327
		c-4.365,5.359-7.286,8.334-8.763,8.912c-2.426-0.292-9.854-4.441-22.274-12.463c-10.085-6.464-17.303-11.719-21.666-15.781
		c-7.746-7.104-12.293-14.496-13.647-22.178c-1.275-7.219,0.343-13.762,4.85-19.623c4.32-5.591,10.165-9.036,17.539-10.337
		c9.752-1.718,17.277,1.228,22.586,8.846c2.371-8.975,8.442-14.314,18.195-16.036c7.369-1.298,14.042-0.059,20.014,3.715
		c6.24,3.968,9.998,9.558,11.273,16.781C306.729,134.812,306.073,140.985,303.764,147.646"/>
	
		<rect x="352.73" y="2.503" transform="matrix(0.9848 -0.1736 0.1736 0.9848 3.5679 64.0581)" style="fill:#F3A100;" width="30.435" height="18.263"/>
	<path style="fill:#FFFFFF;" d="M99.377,144.596l-6.932-39.325c-0.977-5.546,2.738-10.851,8.28-11.827l37.8-6.666
		c3.314-6.412,7.116-12.553,11.381-18.361L97.93,77.585c-14.29,2.517-23.865,16.192-21.345,30.484l9.171,52.01L99.377,144.596z"/>
	<path style="fill:#FFFFFF;" d="M110.878,209.811l6.933,39.326c0.979,5.541,6.282,9.256,11.827,8.279l37.802-6.666
		c5.306,4.895,10.981,9.366,16.97,13.362l-51.977,9.163c-14.287,2.521-27.961-7.056-30.48-21.346l-9.173-52.011L110.878,209.811z"/>
	<path style="fill:#FFFFFF;" d="M421.953,154.958l6.933,39.325c0.976,5.546-2.735,10.851-8.281,11.827l-37.8,6.666
		c-3.314,6.414-7.115,12.553-11.38,18.361l51.978-9.163c14.289-2.522,23.864-16.2,21.343-30.484l-9.17-52.015L421.953,154.958z"/>
	<path style="fill:#FFFFFF;" d="M410.454,89.745l-6.936-39.328c-0.976-5.541-6.281-9.256-11.824-8.279l-37.801,6.666
		c-5.307-4.895-10.981-9.366-16.973-13.362l51.976-9.163c14.289-2.521,27.964,7.054,30.486,21.343l9.168,52.014L410.454,89.745z"/>
	<path style="fill:#FFFFFF;" d="M32.269,119.92c0.776,2.605,1.088,7.026,0.935,13.253c-0.059,2.088-0.122,3.761-0.191,5.043
		c-0.162,2.655-0.407,4.248-0.739,4.757c-0.823,0.459-4.081,0.834-9.776,1.115c-4.611,0.247-8.052,0.227-10.33-0.064
		c-4.026-0.479-7.112-1.767-9.264-3.869c-2.025-1.973-2.99-4.386-2.898-7.233c0.094-2.719,1.146-5.117,3.162-7.18
		c2.665-2.738,5.684-3.503,9.061-2.319c-1.279-3.34-0.583-6.38,2.085-9.113c2.015-2.063,4.378-3.177,7.101-3.34
		c2.844-0.158,5.278,0.74,7.303,2.719C30.311,115.237,31.495,117.316,32.269,119.92"/>
	<path style="fill:#FFFFFF;" d="M56.863,213.62c-2.143,2.605-6.465,5.99-12.979,10.154c-2.186,1.387-3.954,2.488-5.313,3.301
		c-2.848,1.678-4.651,2.532-5.411,2.542c-1.039-0.528-3.683-3.622-7.923-9.281c-3.458-4.565-5.822-8.117-7.106-10.663
		c-2.297-4.471-3.113-8.541-2.447-12.207c0.623-3.454,2.434-6.118,5.426-7.998c2.864-1.792,6.057-2.374,9.579-1.733
		c4.659,0.844,7.543,3.41,8.663,7.712c2.552-3.637,6.159-5.027,10.819-4.179c3.52,0.632,6.308,2.294,8.363,4.979
		c2.14,2.812,2.9,5.94,2.277,9.394C60.318,208.355,59.002,211.015,56.863,213.62"/>
	<g>
		<path style="fill:#FFFFFF;" d="M595.107,200.093c-25.318,0-38.22-43.936-48.999-63.863c12.086-4.408,21.558-12.576,21.558-28.09
			c0-16.498-12.412-16.17-23.355-16.17c-8.004,0-20.416,17.475-26.297,33.317c1.143-20.578,7.349-57.001,7.349-64.841
			c0-8.656-24.335-14.863-24.335-6.207c0,3.756-5.554,60.105-5.554,75.95c0,32.83,14.863,47.203,27.44,47.203
			c6.207,0-0.164-2.942-3.429-23.358c0.162-4.736,0.652-9.145,1.469-13.229c20.253,4.574,23.847,68.108,64.516,68.108
			C600.007,208.913,602.13,200.093,595.107,200.093z M522.424,132.965c7.676-30.707,26.459-42.956,26.459-30.052
			C548.883,106.342,544.311,129.537,522.424,132.965z"/>
		<path style="fill:#FFFFFF;" d="M638.563,88.702c-0.49-0.49-1.961-0.816-4.574-0.816c-1.143-0.163-2.123-0.163-3.102-0.163
			c-0.654,0-1.144,0.163-1.797,0.326c-0.49,0.163-0.98,0.327-1.306,0.653c-11.761,6.696-25.808,49.489-32.015,70.233
			c-0.49-3.265-0.816-7.024-0.816-11.271c0-5.389,0.654-23.029,0.654-26.458c0-10.618-24.01-8.985-24.01-6.044
			c0,2.941,1.797,1.795,1.797,4.736c0,2.451-2.287,57.984,21.559,57.984c0.816,0,1.47-0.163,1.961-0.328h0.489
			c0.817-0.326,1.143-0.816,1.308-1.633c6.369-9.311,18.782-56.675,25.969-74.806c-2.287,12.576-5.717,34.301-5.717,52.429
			c0,27.603,24.663,31.035,24.663,26.298s-3.102-3.266-3.102-27.931c0-12.411,8.328-46.875,8.328-54.715
			C648.852,93.275,643.79,90.172,638.563,88.702z"/>
		<path style="fill:#FFFFFF;" d="M683.652,78.902c0-6.206-8.656-16.007-16.659-16.007c-8.167,0-15.19-0.326-15.19,8.004
			C651.803,79.065,683.652,93.602,683.652,78.902z"/>
		<path style="fill:#FFFFFF;" d="M754.214,91.315c-2.123-1.469-18.293-4.573-23.683,0.817c-4.084,4.247-9.31,21.069-13.066,36.915
			c1.142-18.131,2.286-31.36,2.286-34.954c0-6.697-8.329-6.697-14.536-6.697c-4.83,0-8.679,26.263-9.337,57.504
			c-4.188,8.906-9.587,18.703-13.369,20.733c-2.778-6.207-6.207-17.15-6.207-34.629c0-7.021,0.98-16.822,0.98-22.701
			c0-8.168-20.58-14.537-20.58-7.35c0,4.084-1.797,10.944-1.797,29.889c0,15.028,2.613,45.57,23.846,45.57h0.328
			c5.598,0,11.72-9.515,16.705-20.031c0.193,42.925,6.558,90.153,24.371,90.936c0.165,0.006,3.303,0.038,3.465,0
			c7.441-1.748-7.952-23.701-7.952-65.841c0-8.658,0.163-17.314,0.49-25.481c3.43-15.517,13.883-57.983,24.173-57.983
			c5.553,0,8.494,73.663-11.76,73.663c-9.147,0,0,6.044,9.473,6.044C773.977,177.719,774.956,105.199,754.214,91.315z"/>
		<path style="fill:#FFFFFF;" d="M812.367,125.943c2.779,0,18.459-15.518,18.459-27.767c0-12.414-16.498-10.944-28.422-10.944
			c-11.758,0-26.133,25.644-26.133,39.854c0,26.458,35.115,21.068,35.115,21.068c0,5.88-22.539,30.055-30.378,30.055
			c-4.247,0,1.96,8.493,11.598,8.493c9.636,0,35.932-23.358,35.932-37.895c0-14.372-24.988-14.044-29.238-14.044
			c-9.634,0,1.799-31.85,14.375-31.85C816.289,102.913,809.429,125.943,812.367,125.943z"/>
		<path style="fill:#FFFFFF;" d="M945.828,84.946c-7.514,0-21.234,36.748-25.48,58.145c-0.327-4.571-0.49-9.798-0.49-15.843
			c0-12.414,3.266-20.579,3.266-27.275c0-6.86-5.061-12.577-16.005-12.577c-5.554,0-7.677,24.335-7.677,40.995
			c0,6.675,0.303,12.543,0.84,17.711c-4.542,8.468-11.64,16.753-22.246,16.753c-8.986,0-18.949-16.495-17.64-32.665
			c3.428,0.98,8.002,2.123,11.924,2.123c10.615,0,18.783-8.983,18.783-26.133c0-9.149-3.594-16.661-8.495-18.947
			c-5.062-2.451-20.742-3.431-27.439,2.449c-6.535,5.879-17.313,25.48-17.313,46.715c0,16.332,13.556,36.749,36.259,36.749
			c12.663,0,21.381-9.76,27.102-20.033c5.978,35.851,25.01,29.466,25.01,25.75c0-2.777-2.447-5.88-4.246-17.804
			c1.308-23.194,20.254-60.924,20.254-60.924s-2.776,14.047-2.776,17.641c0,3.593,6.042,6.859,14.372,6.859
			c8.167,0,11.596-13.066,11.596-26.623C965.427,84.455,954.812,84.946,945.828,84.946z M876.401,99.483
			c8.33,0,5.063,36.095-15.681,27.275C862.357,112.549,867.907,99.483,876.401,99.483z"/>
		<path style="fill:#FFFFFF;" d="M989.771,151.748c-0.981-23.681,8.982-96.202,8.492-106.493
			c-0.49-10.125-21.231-17.803-20.741-4.572c0.49,8.004-9.801,75.784-8.33,105.676c1.305,29.727,17.475,45.08,26.623,44.589
			C1005.122,190.62,991.566,188.007,989.771,151.748z"/>
	</g>
</g>
<g>
	<path style="fill:#FFFFFF;" d="M745.144,246.698v-48.485h30.082v6.866H753v16.351h18.475v6.865H753v18.403H745.144z"/>
	<path style="fill:#FFFFFF;" d="M782.481,215.13c2.43-3.067,6.477-4.601,12.139-4.601c5.663,0,9.708,1.533,12.14,4.601
		c2.43,3.067,3.645,7.669,3.645,13.802c0,6.135-1.18,10.759-3.539,13.874c-2.359,3.114-6.44,4.671-12.245,4.671
		c-5.804,0-9.886-1.557-12.245-4.671c-2.36-3.115-3.539-7.739-3.539-13.874C778.835,222.799,780.05,218.197,782.481,215.13z
		 M788.249,238.134c1.085,1.888,3.208,2.831,6.37,2.831c3.161,0,5.284-0.943,6.37-2.831c1.085-1.887,1.629-4.979,1.629-9.272
		c0-4.293-0.579-7.337-1.734-9.131c-1.157-1.793-3.245-2.689-6.265-2.689c-3.021,0-5.108,0.896-6.264,2.689
		c-1.157,1.794-1.734,4.838-1.734,9.131C786.622,233.155,787.164,236.247,788.249,238.134z"/>
	<path style="fill:#FFFFFF;" d="M837.088,217.891h-9.768v15.571c0,2.879,0.212,4.79,0.637,5.733c0.425,0.944,1.51,1.416,3.256,1.416
		l5.804-0.213l0.354,6.158c-3.162,0.612-5.568,0.92-7.22,0.92c-4.012,0-6.76-0.92-8.246-2.76c-1.486-1.841-2.229-5.309-2.229-10.405
		v-16.421h-4.53v-6.583h4.53v-10.264h7.645v10.264h9.768V217.891z"/>
	<path style="fill:#FFFFFF;" d="M845.333,215.13c2.43-3.067,6.477-4.601,12.139-4.601c5.663,0,9.708,1.533,12.14,4.601
		c2.43,3.067,3.645,7.669,3.645,13.802c0,6.135-1.18,10.759-3.539,13.874c-2.359,3.114-6.44,4.671-12.245,4.671
		c-5.804,0-9.886-1.557-12.245-4.671c-2.36-3.115-3.539-7.739-3.539-13.874C841.688,222.799,842.903,218.197,845.333,215.13z
		 M851.102,238.134c1.085,1.888,3.208,2.831,6.37,2.831c3.161,0,5.284-0.943,6.37-2.831c1.085-1.887,1.629-4.979,1.629-9.272
		c0-4.293-0.579-7.337-1.734-9.131c-1.157-1.793-3.245-2.689-6.265-2.689c-3.021,0-5.108,0.896-6.264,2.689
		c-1.157,1.794-1.734,4.838-1.734,9.131C849.474,233.155,850.016,236.247,851.102,238.134z"/>
	<path style="fill:#FFFFFF;" d="M897.394,210.53c4.859,0,8.363,1.356,10.511,4.069c2.146,2.714,3.221,7.516,3.221,14.404
		c0,6.89-1.274,11.691-3.822,14.404c-2.548,2.714-7.032,4.069-13.448,4.069c-2.219,0-5.733-0.212-10.547-0.637l-2.406-0.212v-50.043
		h7.645v16.067C891.802,211.237,894.75,210.53,897.394,210.53z M893.855,240.612c3.774,0,6.287-0.885,7.538-2.654
		c1.249-1.77,1.875-4.778,1.875-9.025c0-4.246-0.53-7.23-1.592-8.953c-1.062-1.723-2.796-2.584-5.203-2.584
		c-2.265,0-4.529,0.354-6.795,1.062l-1.132,0.354v21.518C891.14,240.517,892.91,240.612,893.855,240.612z"/>
	<path style="fill:#FFFFFF;" d="M920.787,215.13c2.43-3.067,6.477-4.601,12.139-4.601c5.663,0,9.708,1.533,12.14,4.601
		c2.43,3.067,3.645,7.669,3.645,13.802c0,6.135-1.18,10.759-3.539,13.874c-2.359,3.114-6.44,4.671-12.245,4.671
		c-5.804,0-9.886-1.557-12.245-4.671c-2.36-3.115-3.539-7.739-3.539-13.874C917.141,222.799,918.356,218.197,920.787,215.13z
		 M926.555,238.134c1.085,1.888,3.208,2.831,6.37,2.831c3.161,0,5.284-0.943,6.37-2.831c1.085-1.887,1.629-4.979,1.629-9.272
		c0-4.293-0.579-7.337-1.734-9.131c-1.157-1.793-3.245-2.689-6.265-2.689c-3.021,0-5.108,0.896-6.264,2.689
		c-1.157,1.794-1.734,4.838-1.734,9.131C924.927,233.155,925.469,236.247,926.555,238.134z"/>
	<path style="fill:#FFFFFF;" d="M952.248,211.308h8.21l6.937,12.245l7.008-12.245h8.211l-10.547,17.412l10.547,17.979h-8.211
		l-7.008-12.104l-6.937,12.104h-8.21l10.263-17.767L952.248,211.308z"/>
</g>
</svg>
